<?xml version="1.0" standalone="no"?>
<!DOCTYPE svg PUBLIC "-//W3C//DTD SVG 20010904//EN" "http://www.w3.org/TR/2001/REC-SVG-20010904/DTD/svg10.dtd">
<svg xmlns="http://www.w3.org/2000/svg" version="1.0" width="2048.000000pt" height="2048.000000pt" viewBox="0 0 2048.000000 2048.000000" preserveAspectRatio="xMidYMid meet">
<metadata>
Created by potrace 1.16, written by Peter Selinger 2001-2019
<meta name="Producer" content="Online-Convert"/></metadata>
<g transform="translate(0.000000,2048.000000) scale(0.100000,-0.100000)" fill="#000000" stroke="none">
<path d="M9160 14014 c-75 -16 -182 -47 -230 -67 l-33 -14 61 -33 c252 -134 375 -357 492 -889 22 -101 41 -185 42 -187 2 -1 3 70 3 159 1 324 88 623 253 871 53 79 53 79 -47 117 -148 56 -392 76 -541 43z"/>
<path d="M8670 13846 c-90 -26 -161 -72 -298 -195 -141 -125 -306 -358 -402 -567 -59 -127 -57 -138 5 -29 53 93 141 225 150 225 2 0 -25 -60 -60 -132 -144 -302 -218 -665 -232 -1133 -17 -625 110 -1254 357 -1760 188 -387 497 -777 784 -992 195 -146 473 -271 654 -293 142 -18 238 17 347 125 320 318 413 996 217 1575 -92 270 -183 452 -440 880 -261 434 -355 631 -422 884 -42 158 -56 246 -90 551 -46 408 -78 538 -164 668 -47 71 -130 147 -191 176 -58 27 -155 35 -215 17z"/>
<path d="M10725 12774 c744 -62 1245 -137 1530 -231 99 -32 132 -48 168 -81 45 -43 33 -86 -36 -126 -254 -147 -1249 -267 -1948 -236 -385 17 -585 48 -753 116 -32 13 -61 23 -63 21 -7 -8 148 -288 379 -682 198 -338 289 -529 368 -765 66 -199 91 -331 97 -521 6 -176 -5 -298 -43 -469 -52 -230 -120 -394 -240 -574 l-74 -111 54 57 c150 157 284 425 347 692 19 81 19 81 13 21 -15 -158 -75 -366 -154 -530 -66 -138 -137 -241 -244 -353 l-91 -95 165 6 c193 8 328 26 497 67 387 94 745 305 1035 608 53 56 101 102 107 102 38 0 890 408 1141 546 47 26 81 42 75 37 -15 -16 -374 -229 -527 -313 -75 -41 -135 -76 -134 -77 6 -6 356 163 490 236 211 116 312 179 479 299 350 251 554 484 647 741 29 78 40 133 18 81 -43 -97 -97 -195 -138 -250 -60 -82 -108 -127 -58 -55 192 275 239 574 126 805 -45 93 -159 205 -258 254 -84 40 -185 65 -275 67 -53 1 -57 2 -30 10 17 6 70 7 118 4 79 -5 122 -11 207 -30 14 -3 6 4 -18 15 -74 34 -196 53 -297 47 -161 -10 -332 -65 -565 -181 l-125 -62 0 276 c0 301 -1 304 -62 362 -83 79 -336 156 -673 207 -286 43 -904 82 -1255 80 l-160 -1 160 -14z m2762 -1130 c34 -21 57 -45 78 -84 27 -50 30 -64 30 -145 0 -78 -5 -101 -33 -172 -18 -45 -60 -120 -93 -167 -69 -97 -227 -254 -344 -342 -131 -99 -383 -264 -485 -318 -136 -72 -433 -216 -437 -212 -2 2 28 61 67 132 112 205 202 431 275 686 l43 148 76 94 c131 161 268 274 422 347 116 55 175 69 271 66 70 -3 89 -8 130 -33z"/>
<path d="M7542 12583 c-29 -135 -37 -240 -36 -488 0 -261 12 -398 50 -584 26 -128 9 -87 -24 57 -62 269 -89 460 -99 700 -4 107 -9 149 -16 137 -18 -32 -1 -513 22 -660 59 -369 147 -677 281 -987 128 -294 252 -513 416 -731 93 -124 248 -297 265 -297 6 0 -19 37 -54 83 -163 208 -346 524 -458 787 -154 362 -274 822 -325 1245 -21 176 -29 502 -15 654 5 69 9 127 7 129 -2 2 -9 -18 -14 -45z"/>
<path d="M9360 12603 c-1 -52 80 -337 131 -460 79 -189 139 -299 441 -809 128 -216 158 -264 158 -251 0 13 -110 227 -243 472 -278 512 -360 684 -442 929 -25 72 -45 126 -45 119z"/>
<path d="M7523 11115 c46 -155 92 -297 121 -370 152 -395 346 -725 580 -988 42 -47 76 -87 76 -89 0 -1 -93 -4 -208 -5 -747 -7 -1544 -167 -1755 -353 -61 -54 -77 -86 -77 -153 0 -104 87 -190 292 -286 241 -114 512 -187 953 -257 289 -46 462 -99 660 -204 61 -32 140 -67 176 -78 225 -69 987 -122 1749 -122 436 0 712 10 1104 40 471 36 542 53 751 175 156 91 159 92 412 135 729 125 1233 288 1442 467 39 32 115 132 107 140 -1 2 -50 -19 -107 -46 -301 -143 -779 -247 -1469 -320 -285 -31 -809 -67 -798 -56 2 3 137 19 299 35 535 55 880 108 1294 200 224 49 508 132 624 182 56 23 121 67 121 81 0 6 -8 3 -17 -5 -35 -31 -104 -58 -241 -97 -492 -139 -1330 -270 -2152 -335 -318 -26 -995 -57 -1315 -61 -432 -5 -450 7 -35 24 335 14 868 57 856 69 -2 2 -150 -1 -328 -7 -1004 -34 -1841 -33 -2283 3 -232 19 -755 80 -958 111 -291 45 -607 125 -719 181 -46 23 -88 66 -88 89 0 62 194 155 480 228 231 60 705 146 1020 186 l215 28 85 -77 c190 -171 375 -299 565 -391 140 -68 218 -90 100 -29 -94 49 -329 205 -430 285 -111 88 -308 289 -422 430 -262 324 -463 684 -630 1130 -40 107 -66 164 -50 110z"/>
<path d="M6249 7966 c-2 -2 -112 -16 -244 -31 -132 -14 -246 -28 -252 -30 -7 -2 -13 -16 -13 -29 0 -21 6 -26 38 -31 75 -13 140 -35 146 -51 11 -30 7 -1779 -5 -1791 -6 -6 -46 -21 -90 -34 -74 -22 -79 -26 -79 -51 l0 -28 371 0 370 0 -3 26 c-3 24 -12 30 -83 53 l-80 26 -3 988 -2 987 -33 0 c-19 0 -36 -2 -38 -4z"/>
<path d="M8246 7752 c-3 -5 -55 -128 -117 -273 -61 -145 -149 -354 -196 -464 -47 -110 -106 -252 -132 -315 -72 -175 -273 -632 -288 -657 -17 -26 -66 -50 -147 -72 -57 -15 -61 -18 -64 -49 l-3 -32 285 0 286 0 0 29 c0 20 -6 31 -17 35 -187 54 -193 57 -193 85 1 9 41 113 89 231 l89 215 334 0 333 0 87 -215 c47 -118 87 -225 87 -237 1 -27 -21 -40 -119 -68 -67 -20 -75 -25 -78 -49 l-3 -26 425 0 426 0 0 28 c0 26 -5 30 -74 51 -118 36 -119 38 -259 366 -120 279 -240 556 -495 1145 l-119 275 -66 3 c-36 2 -68 -1 -71 -6z m74 -808 c77 -191 138 -349 136 -351 -1 -2 -132 -2 -289 -1 l-285 3 62 155 c220 544 225 555 232 547 3 -2 68 -161 144 -353z"/>
<path d="M4054 7721 c-2 -2 -4 -17 -4 -32 0 -23 5 -28 37 -34 75 -14 144 -46 154 -72 5 -14 9 -335 9 -786 0 -832 3 -792 -57 -815 -15 -6 -54 -18 -85 -27 -50 -14 -58 -20 -58 -41 l0 -24 743 2 742 3 17 190 c9 105 17 216 17 248 l1 57 -43 0 -42 0 -43 -132 c-54 -167 -84 -231 -117 -246 -18 -8 -126 -12 -350 -12 l-325 0 0 385 0 385 221 0 221 0 27 -28 c21 -21 34 -51 51 -125 l24 -97 38 0 38 0 0 218 c0 119 3 254 7 300 l6 83 -43 -3 -42 -3 -19 -73 c-26 -103 -45 -139 -81 -151 -18 -7 -117 -11 -239 -11 l-209 0 0 370 0 370 288 0 c253 0 291 -2 322 -18 45 -22 71 -70 117 -209 l36 -113 44 0 44 0 -6 173 c-3 94 -8 195 -11 222 l-5 50 -710 0 c-391 0 -713 -2 -715 -4z"/>
<path d="M10288 7285 c-32 -8 -75 -23 -96 -34 -53 -27 -135 -103 -169 -156 -15 -25 -31 -45 -35 -45 -5 0 -8 46 -8 103 0 56 -4 109 -10 117 -8 12 -42 10 -252 -19 -317 -42 -298 -38 -298 -65 0 -20 10 -25 87 -44 48 -12 90 -27 95 -34 10 -16 6 -1093 -4 -1104 -4 -3 -42 -19 -85 -34 -68 -24 -78 -31 -81 -54 l-3 -26 386 0 386 0 -3 27 c-3 24 -10 29 -71 44 -97 24 -126 38 -133 63 -2 11 -4 210 -2 441 l3 420 28 60 c15 32 39 74 54 93 27 36 92 71 131 72 20 0 22 -5 22 -50 0 -64 19 -109 59 -143 94 -78 245 -47 301 62 38 75 24 194 -29 255 -48 54 -170 77 -273 51z"/>
<path d="M11288 7290 c-207 -37 -366 -135 -466 -284 -87 -130 -122 -252 -122 -433 0 -371 188 -622 525 -699 116 -27 332 -25 437 4 132 36 223 87 314 177 65 64 89 97 123 165 62 128 75 191 75 355 0 162 -13 224 -76 355 -77 161 -239 288 -433 340 -89 24 -296 35 -377 20z m209 -106 c69 -34 118 -90 163 -188 75 -160 111 -352 112 -586 0 -297 -62 -434 -213 -470 -93 -23 -195 7 -264 76 -120 120 -207 471 -192 779 11 225 68 351 181 401 54 23 155 18 213 -12z"/>
<path d="M14125 7285 c-109 -23 -189 -67 -276 -154 l-76 -76 -29 49 c-40 67 -114 131 -182 157 -71 28 -238 38 -321 19 -118 -26 -249 -106 -302 -185 -13 -19 -27 -35 -31 -35 -5 0 -8 44 -8 98 0 53 -4 103 -9 111 -8 12 -39 10 -205 -13 -108 -15 -227 -30 -266 -33 -69 -6 -70 -6 -70 -34 0 -23 5 -30 28 -34 15 -4 52 -14 82 -23 l55 -17 3 -557 2 -556 -42 -16 c-24 -9 -61 -22 -83 -29 -32 -11 -41 -19 -43 -40 l-3 -27 366 0 366 0 -3 26 c-3 22 -12 29 -58 44 -30 9 -67 23 -82 30 l-28 13 0 462 0 461 28 45 c38 59 100 114 148 130 22 7 68 13 104 13 95 0 145 -30 185 -109 l30 -60 3 -463 c2 -334 0 -467 -8 -477 -6 -8 -40 -23 -76 -35 -70 -24 -78 -31 -69 -60 6 -19 16 -20 361 -20 l354 0 0 28 c0 25 -6 29 -78 52 l-77 25 -5 475 -5 475 36 55 c43 66 115 108 199 117 112 11 192 -35 232 -135 22 -56 23 -66 26 -519 l3 -461 -55 -21 c-30 -11 -67 -23 -81 -27 -19 -5 -25 -12 -25 -35 l0 -29 359 0 c348 0 359 1 364 20 6 25 -2 31 -95 64 -77 28 -78 28 -79 65 -1 20 -4 241 -8 491 -7 432 -8 458 -28 513 -43 116 -128 200 -236 232 -75 23 -208 27 -292 10z"/>
<path d="M15573 7290 c-301 -31 -479 -169 -448 -349 15 -87 106 -139 209 -120 103 19 137 72 140 218 2 148 35 178 182 169 97 -6 141 -35 181 -115 27 -56 28 -62 28 -217 l0 -159 -155 -33 c-408 -88 -546 -148 -626 -275 -60 -95 -70 -253 -23 -354 67 -142 242 -219 446 -195 133 15 236 63 327 155 l53 53 13 -38 c38 -116 162 -179 330 -167 92 6 160 33 213 85 38 37 45 60 26 79 -9 9 -21 7 -50 -8 -21 -10 -56 -19 -78 -19 -33 0 -44 5 -58 27 -16 24 -19 69 -24 468 -4 271 -11 457 -18 483 -41 158 -149 257 -323 296 -83 19 -243 26 -345 16z m297 -872 c0 -249 -5 -273 -71 -335 -47 -44 -98 -63 -170 -63 -79 0 -134 30 -169 92 -33 59 -41 201 -15 279 22 64 88 134 158 167 38 18 223 76 260 81 4 1 7 -99 7 -221z"/>
<path d="M7218 4857 c-176 -50 -265 -246 -187 -413 30 -62 105 -127 174 -149 104 -32 248 -3 307 62 17 19 17 21 -12 48 l-30 29 -23 -22 c-57 -54 -165 -64 -244 -24 -123 63 -148 237 -49 337 79 78 205 86 286 18 l31 -26 29 28 c28 27 29 30 13 47 -53 58 -202 91 -295 65z"/>
<path d="M7966 4748 c-27 -62 -78 -176 -114 -253 -35 -77 -71 -155 -78 -172 l-14 -33 43 0 44 0 32 70 33 70 148 0 148 0 29 -70 28 -70 47 0 c42 0 46 2 40 18 -4 10 -61 138 -127 285 l-120 267 -45 0 -45 0 -49 -112z m182 -189 l20 -47 -36 -6 c-55 -9 -182 -7 -182 3 0 4 14 39 31 77 17 38 42 93 56 124 l24 55 33 -80 c18 -44 43 -101 54 -126z"/>
<path d="M8651 4575 l4 -285 43 0 42 0 0 115 0 115 145 0 145 0 0 40 0 40 -145 0 -145 0 0 90 0 90 165 0 165 0 0 40 0 40 -211 0 -211 0 3 -285z"/>
<path d="M9370 4575 l0 -285 215 0 215 0 0 40 0 40 -170 0 -170 0 0 85 0 85 146 0 145 0 -3 38 -3 37 -142 3 -143 3 0 79 0 80 165 0 165 0 0 40 0 40 -210 0 -210 0 0 -285z"/>
<path d="M10050 4820 l0 -40 95 0 95 0 0 -245 0 -245 40 0 40 0 2 168 c2 92 3 202 3 245 l0 77 93 0 92 0 0 40 0 40 -230 0 -230 0 0 -40z"/>
<path d="M10815 4575 l0 -285 213 0 212 0 0 40 0 40 -170 0 -170 0 0 85 0 85 144 0 144 0 6 31 c3 17 3 35 0 40 -3 5 -70 9 -150 9 l-144 0 0 80 0 80 165 0 165 0 0 40 0 40 -207 0 -208 0 0 -285z"/>
<path d="M11563 4648 c4 -116 7 -244 7 -285 l0 -73 40 0 40 0 0 90 0 90 85 0 84 0 63 -90 62 -90 49 0 c36 0 46 3 41 13 -4 6 -30 46 -58 87 -28 41 -54 80 -58 86 -5 7 7 21 31 37 71 47 99 144 65 225 -41 98 -102 122 -312 122 l-145 0 6 -212z m320 122 c51 -25 73 -103 44 -160 -22 -44 -71 -60 -179 -60 l-98 0 0 121 0 121 103 -4 c56 -3 115 -11 130 -18z"/>
<path d="M12380 4575 l0 -285 40 0 40 0 0 285 0 285 -40 0 -40 0 0 -285z"/>
<path d="M13008 4823 c-31 -75 -157 -360 -197 -445 l-40 -88 44 0 43 0 33 70 32 70 144 0 145 0 31 -70 31 -70 47 0 46 0 -126 285 -126 285 -46 0 c-44 0 -47 -2 -61 -37z m121 -195 c28 -64 51 -119 51 -122 0 -3 -49 -6 -110 -6 -60 0 -110 3 -110 6 0 19 106 252 112 246 3 -4 29 -60 57 -124z"/>
<path d="M9159 3492 c-172 -89 -169 -343 5 -435 58 -31 183 -31 242 0 61 33 68 45 40 72 l-24 23 -30 -22 c-33 -25 -102 -36 -156 -26 -46 9 -94 50 -117 101 -77 169 107 322 265 219 l39 -26 20 20 c18 18 19 23 6 38 -8 9 -36 28 -64 40 -73 34 -156 33 -226 -4z"/>
<path d="M9812 3473 c-11 -27 -59 -133 -107 -236 -47 -104 -85 -190 -83 -192 2 -2 16 -5 33 -7 27 -3 32 1 57 55 l28 57 126 0 125 0 27 -60 c25 -59 27 -61 56 -54 17 3 33 8 35 10 1 1 -36 90 -84 196 -48 106 -96 212 -106 236 -16 38 -22 42 -52 42 -31 0 -36 -4 -55 -47z m102 -145 c26 -59 46 -108 46 -110 0 -2 -42 -2 -93 0 l-94 3 46 109 c25 59 47 107 48 106 1 -1 22 -50 47 -108z"/>
<path d="M10343 3513 l-23 -4 0 -235 0 -234 35 0 35 0 0 95 0 95 120 0 120 0 6 25 c8 34 1 40 -48 36 -23 -1 -77 0 -120 4 l-78 7 0 74 0 74 135 0 135 0 0 35 0 35 -147 -1 c-82 -1 -158 -4 -170 -6z"/>
<path d="M10880 3275 l0 -235 180 0 180 0 0 30 0 29 -142 3 -143 3 -3 68 -3 67 38 1 c21 0 76 1 123 2 l85 2 3 33 3 32 -126 0 -126 0 3 68 3 67 138 3 137 3 0 29 0 30 -175 0 -175 0 0 -235z"/>
</g>
</svg>
